<svg id="Слой_1" data-name="Слой 1" xmlns="http://www.w3.org/2000/svg" xmlns:xlink="http://www.w3.org/1999/xlink" viewBox="0 0 238.7 127.26"><defs><style>.cls-1{fill:#171718;}.cls-2{fill:#000105;}.cls-3{fill:#939292;}.cls-4{fill:#201600;}.cls-5{fill:#fff;}.cls-6{fill:url(#Безымянный_градиент_35);}</style><linearGradient id="Безымянный_градиент_35" x1="62.32" y1="69.38" x2="87.13" y2="69.38" gradientUnits="userSpaceOnUse"><stop offset="0" stop-color="#9b6545"/><stop offset="0.38" stop-color="#d8ad4c"/><stop offset="0.62" stop-color="#f6d655"/><stop offset="1" stop-color="#664432"/></linearGradient></defs><title>Логотип</title><path class="cls-1" d="M87.13,68,66.71,66.27l.28,12,3.88,6.09S81.74,82.55,82,82.25s3.35-10,3.35-10.33S87.13,68,87.13,68Z"/><polygon class="cls-2" points="74.96 68.03 66.3 67.29 66.3 66.27 87.13 68.03 74.96 68.03"/><path class="cls-2" d="M81.54,61.84,68.08,60.69s-1.06-3.76-.56-3.84,7.83-2.39,7.83-2.39,6.61,3.42,6.93,3.42S81.54,61.84,81.54,61.84Z"/><path class="cls-3" d="M105.42,78h1l3,8.09h-1.23l-2.24-6.53-2.25,6.53h-1.22Zm-1.61,5.24h4.26v1.08h-4.26Z"/><path class="cls-3" d="M110.49,80.27h1.13v5.78h-1.13Zm.67,4.76h2.14a.68.68,0,0,0,.52-.19.74.74,0,0,0,.19-.53v0a.81.81,0,0,0-.19-.56.65.65,0,0,0-.52-.2h-2.14v-1h2.14a.64.64,0,0,0,.44-.14.54.54,0,0,0,.16-.42.64.64,0,0,0-.16-.47.56.56,0,0,0-.43-.17h-2.15v-1h2.19a1.89,1.89,0,0,1,1.25.38,1.3,1.3,0,0,1,.45,1.06,1.21,1.21,0,0,1-.33.87,1.57,1.57,0,0,1-.93.44,1.73,1.73,0,0,1,1,.53,1.48,1.48,0,0,1,.35,1h0a1.36,1.36,0,0,1-.47,1.1,2.09,2.09,0,0,1-1.35.38h-2.17Z"/><path class="cls-3" d="M116,80.27h4.49v1H116Zm1.67.61h1.14v5.17h-1.14Z"/><path class="cls-3" d="M122.52,85.84a1.9,1.9,0,0,1-.82-.86,3.11,3.11,0,0,1-.28-1.36v-.94a3.13,3.13,0,0,1,.28-1.35,2,2,0,0,1,.82-.85,2.7,2.7,0,0,1,1.29-.29,2.66,2.66,0,0,1,1.28.29,2,2,0,0,1,.82.85,3,3,0,0,1,.28,1.35v1a3,3,0,0,1-.28,1.35,1.93,1.93,0,0,1-.82.85,2.55,2.55,0,0,1-1.28.3A2.59,2.59,0,0,1,122.52,85.84Zm2.21-1.16a1.54,1.54,0,0,0,.32-1v-1a1.54,1.54,0,0,0-.32-1,1.34,1.34,0,0,0-1.85,0,1.54,1.54,0,0,0-.32,1v1a1.54,1.54,0,0,0,.32,1,1.32,1.32,0,0,0,1.85,0Z"/><path class="cls-3" d="M131.55,82.61v1.08H127.8V82.61Z"/><path class="cls-3" d="M133,80.27h4.49v1H133Zm1.68.61h1.14v5.17h-1.14Z"/><path class="cls-3" d="M140.16,86.14l-.57-.3a2,2,0,0,1-.86-.89,3,3,0,0,1-.3-1.4V82.9a3.33,3.33,0,0,1,.29-1.47,2,2,0,0,1,.83-.92,2.57,2.57,0,0,1,1.31-.32,2.09,2.09,0,0,1,1.24.36,2.24,2.24,0,0,1,.78,1,4.47,4.47,0,0,1,.27,1.64v.38h-3.9v-.91h2.82a1.92,1.92,0,0,0-.36-1.1,1,1,0,0,0-.85-.4,1.25,1.25,0,0,0-1,.43,1.85,1.85,0,0,0-.35,1.2v.73a1.5,1.5,0,0,0,.38,1.1,1.42,1.42,0,0,0,1.07.39,1.89,1.89,0,0,0,.69-.14,2,2,0,0,0,.61-.39l.74.74a3,3,0,0,1-1,.64,2.8,2.8,0,0,1-1.08.23Z"/><path class="cls-3" d="M146.17,82.86l.55,1-1.47,2.14H144Zm0,.57-2.12-3.16h1.26L147,82.86l2.19,3.19h-1.26Zm.37-1.11,1.27-2h1.26l-2,3.12Z"/><path class="cls-3" d="M153.5,80.27h1.14v5.78H153.5Zm.71,4.76h3.38v1h-3.38ZM157,80.27h1.14v5.78H157ZM158,85h1.13v2.48H158Z"/><path class="cls-3" d="M161.9,86.14l-.57-.3a2,2,0,0,1-.87-.89,3,3,0,0,1-.3-1.4V82.9a3.47,3.47,0,0,1,.29-1.47,2.07,2.07,0,0,1,.83-.92,2.63,2.63,0,0,1,1.32-.32,2.08,2.08,0,0,1,1.23.36,2.19,2.19,0,0,1,.79,1,4.47,4.47,0,0,1,.27,1.64v.38H161v-.91h2.82a2,2,0,0,0-.37-1.1,1,1,0,0,0-.84-.4,1.24,1.24,0,0,0-1,.43,1.79,1.79,0,0,0-.35,1.2v.73a1.49,1.49,0,0,0,.37,1.1,1.44,1.44,0,0,0,1.08.39,1.8,1.8,0,0,0,.68-.14,1.87,1.87,0,0,0,.61-.39l.75.74a3.09,3.09,0,0,1-1,.64,2.71,2.71,0,0,1-1.07.23Z"/><path class="cls-3" d="M166.45,80.27h1.13v5.78h-1.13Zm.7,2.43h3.55v1h-3.55Zm2.95-2.43h1.14v5.78H170.1Z"/><path class="cls-3" d="M172.35,80.27h4.49v1h-4.49Zm1.68.61h1.13v5.17H174Z"/><path class="cls-3" d="M178.34,80.27h1.14V88.4h-1.14ZM180,85.88a1.53,1.53,0,0,1-.59-.73l.08-1.21a1.34,1.34,0,0,0,.13.63.89.89,0,0,0,.39.4,1.17,1.17,0,0,0,.61.14,1.09,1.09,0,0,0,.87-.34,1.38,1.38,0,0,0,.31-1V82.55a1.41,1.41,0,0,0-.31-1,1.07,1.07,0,0,0-.87-.36,1.28,1.28,0,0,0-.61.14.92.92,0,0,0-.39.39,1.32,1.32,0,0,0-.13.62l-.12-1.11a2,2,0,0,1,.69-.78,1.62,1.62,0,0,1,.94-.28,1.89,1.89,0,0,1,1,.28,1.7,1.7,0,0,1,.66.8,3.25,3.25,0,0,1,.23,1.28V83.8a3.19,3.19,0,0,1-.23,1.26,1.75,1.75,0,0,1-.69.8,2,2,0,0,1-1.08.28A1.72,1.72,0,0,1,180,85.88Z"/><path class="cls-2" d="M73.48,87.34H63.77c-.46,0-.91,0-1.34-.06h0a12.15,12.15,0,0,1-5.09-1.48A10.66,10.66,0,0,1,53,81.46a12,12,0,0,1-.76-1.67c-.09-.25-.18-.51-.25-.77h0a.32.32,0,0,0,0-.09,15.29,15.29,0,0,1-.5-4V64.55a17.57,17.57,0,0,1,.32-3.39c0-.2.09-.38.13-.56s.08-.31.11-.46a14.6,14.6,0,0,1,1-2.46,10.85,10.85,0,0,1,4.27-4.62,12.17,12.17,0,0,1,6.36-1.65h9.74a12.59,12.59,0,0,0-2.07.34A11.17,11.17,0,0,0,64,57.62a1.42,1.42,0,0,0-.12.25,1.51,1.51,0,0,0-.12.26l0,0c0,.08-.07.15-.09.22-.18.42-.33.83-.47,1.26h0a16.53,16.53,0,0,0-.69,4.9V75a15.54,15.54,0,0,0,.37,3.48h0L63,79a11.9,11.9,0,0,0,1,2.5,10.78,10.78,0,0,0,4.34,4.36,12.2,12.2,0,0,0,3,1.16c.33.07.67.15,1,.2h0C72.78,87.26,73.13,87.31,73.48,87.34Z"/><path class="cls-4" d="M115.8,64.42v3.37a8.28,8.28,0,0,1-.83,3.78,6.06,6.06,0,0,1-2.37,2.54,7,7,0,0,1-3.55.89,7.41,7.41,0,0,1-3.59-.84,5.83,5.83,0,0,1-2.39-2.38,7.25,7.25,0,0,1-.85-3.57V62.52a8.25,8.25,0,0,1,.83-3.78,6.1,6.1,0,0,1,2.37-2.53,6.89,6.89,0,0,1,3.55-.9A6.75,6.75,0,0,1,112,56a6.65,6.65,0,0,1,2.34,2,7.44,7.44,0,0,1,1.27,3h-2.93a4.14,4.14,0,0,0-.81-1.67,3.89,3.89,0,0,0-1.34-1.06A3.7,3.7,0,0,0,109,58a3.86,3.86,0,0,0-2.1.57,3.81,3.81,0,0,0-1.39,1.6,5.5,5.5,0,0,0-.49,2.4v5.69a4.58,4.58,0,0,0,.5,2.18,3.65,3.65,0,0,0,1.43,1.46,4.3,4.3,0,0,0,2.13.51,4.15,4.15,0,0,0,2.1-.53,3.59,3.59,0,0,0,1.39-1.56,5.52,5.52,0,0,0,.49-2.43V67h-3.91V64.42Z"/><path class="cls-4" d="M122.13,74.3a4.59,4.59,0,0,1-1.94-2,7.18,7.18,0,0,1-.67-3.24V66.76a7,7,0,0,1,.67-3.2,4.54,4.54,0,0,1,1.94-2,7.06,7.06,0,0,1,6.13,0,4.61,4.61,0,0,1,2,2,7.16,7.16,0,0,1,.66,3.2v2.29a7.18,7.18,0,0,1-.66,3.21,4.69,4.69,0,0,1-2,2,7.06,7.06,0,0,1-6.13,0Zm5.26-2.76a3.64,3.64,0,0,0,.78-2.49V66.76a3.61,3.61,0,0,0-.78-2.48,3.2,3.2,0,0,0-4.39,0,3.61,3.61,0,0,0-.78,2.48v2.29a3.64,3.64,0,0,0,.78,2.49,3.15,3.15,0,0,0,4.39,0Z"/><path class="cls-4" d="M137.43,71.25a1.18,1.18,0,0,0,.22.77.72.72,0,0,0,.62.28h1.27v2.57H138a3,3,0,0,1-2.38-1,3.92,3.92,0,0,1-.85-2.7V55.51h2.71Z"/><path class="cls-4" d="M144.38,74.39a4.12,4.12,0,0,1-1.63-1.92,7.48,7.48,0,0,1-.56-3v-3a7.51,7.51,0,0,1,.55-3,4.14,4.14,0,0,1,1.58-1.92,4.59,4.59,0,0,1,2.5-.66,4.17,4.17,0,0,1,2.24.64,4.67,4.67,0,0,1,1.64,1.79L150.42,66a3.25,3.25,0,0,0-.32-1.49,2.12,2.12,0,0,0-.92-1,3,3,0,0,0-1.47-.33,2.6,2.6,0,0,0-2.07.84,3.43,3.43,0,0,0-.74,2.35v3a3.35,3.35,0,0,0,.74,2.32,2.66,2.66,0,0,0,2.07.82,3,3,0,0,0,1.47-.34,2.24,2.24,0,0,0,.92-1,3.38,3.38,0,0,0,.32-1.52l.18,2.9a3.9,3.9,0,0,1-1.34,1.71A3.78,3.78,0,0,1,147,75,4.89,4.89,0,0,1,144.38,74.39Zm6-18.88h2.71V74.8h-2.71Z"/><path class="cls-4" d="M161,75l-1.36-.71a4.78,4.78,0,0,1-2.06-2.11,7.3,7.3,0,0,1-.71-3.35V67.28a8.23,8.23,0,0,1,.68-3.49,4.9,4.9,0,0,1,2-2.2,6.15,6.15,0,0,1,3.13-.76,4.92,4.92,0,0,1,2.94.87,5.29,5.29,0,0,1,1.87,2.49,10.64,10.64,0,0,1,.64,3.91V69H158.8V66.83h6.72a4.63,4.63,0,0,0-.87-2.62,2.46,2.46,0,0,0-2-.94,2.93,2.93,0,0,0-2.38,1,4.3,4.3,0,0,0-.85,2.86v1.75a3.58,3.58,0,0,0,.91,2.62,3.43,3.43,0,0,0,2.56.92,4.28,4.28,0,0,0,1.63-.33,4.73,4.73,0,0,0,1.45-.93L167.73,73a7.57,7.57,0,0,1-2.29,1.52,6.71,6.71,0,0,1-2.56.53Z"/><path class="cls-4" d="M171.81,61h2.7V74.8h-2.7Zm8.36,5.43a3.18,3.18,0,0,0-.76-2.26,3.29,3.29,0,0,0-4.17-.09,2.61,2.61,0,0,0-.73,2l-.28-2.66a4.92,4.92,0,0,1,1.67-1.92,4,4,0,0,1,2.27-.68,4.25,4.25,0,0,1,3.47,1.47,6.28,6.28,0,0,1,1.23,4.15V74.8h-2.7Z"/><path class="cls-5" d="M56,62.73c-.14,1.92,0,4.05,0,6.1L55.89,75a13.14,13.14,0,0,0,.85,5.06,2.82,2.82,0,0,0,.2.6,11.31,11.31,0,0,0,7.81,6.46,8.32,8.32,0,0,0,.94.2l.38.07v.11a11.35,11.35,0,0,1-1.54-.18,2.63,2.63,0,0,1-.44-.09,11.59,11.59,0,0,1-7.24-4.92v0a8.44,8.44,0,0,1-.69-1.25,13.8,13.8,0,0,1-1.3-5.7V68.72c0-2-.08-4,.09-6.08,0-.13,0-.24,0-.38a14.36,14.36,0,0,1,1.82-5.5,11.39,11.39,0,0,1,7.09-5.23c.18-.05.33-.07.51-.11a12.36,12.36,0,0,1,2.85-.27v.11a7.88,7.88,0,0,0-1.27.16,9.78,9.78,0,0,0-1.22.26,11.33,11.33,0,0,0-7.2,5.5c-.22.45-.42.87-.6,1.34A13.59,13.59,0,0,0,56,62.73Z"/><path class="cls-5" d="M55.71,75.38l-.18.53c-.11,0-.34-.12-.65-.25a37.41,37.41,0,0,1-3.42-1.52v-.62a36,36,0,0,0,3.41,1.53Q55.35,75.26,55.71,75.38Z"/><path class="cls-5" d="M55.71,68.74l-.18.53L54.87,69c-.78-.3-2.1-.85-3.41-1.52v-.64a36.59,36.59,0,0,0,3.41,1.55Q55.35,68.62,55.71,68.74Z"/><path class="cls-5" d="M55.71,62.24l-.18.53L55,62.56c-.71-.28-1.93-.78-3.19-1.4,0-.2.09-.38.13-.56,1.12.56,2.26,1,3.13,1.39C55.28,62.09,55.52,62.17,55.71,62.24Z"/><path class="cls-5" d="M55.86,62.76c.86-.23,8.42-2.36,8.48-4.87h-.56c0,1.77-5.84,3.74-8.06,4.35Z"/><path class="cls-5" d="M55.86,68.94c.86-.24,8.42-2.37,8.48-4.87l-.56,0c0,1.78-5.84,3.74-8.06,4.35Z"/><path class="cls-5" d="M55.86,75.58c.86-.23,8.42-2.36,8.48-4.87h-.56c0,1.78-5.84,3.74-8.06,4.35Z"/><path class="cls-5" d="M56.74,81.16l-.2.52-.08,0a37.61,37.61,0,0,1-4.22-1.86c-.09-.25-.18-.51-.25-.77a34.94,34.94,0,0,0,4.1,1.9Z"/><path class="cls-5" d="M56.88,81.36c.86-.23,8.41-2.36,8.47-4.87h-.56c0,1.77-5.83,3.74-8.06,4.34Z"/><path class="cls-6" d="M87.13,68v6.14a15.23,15.23,0,0,1-1.51,6.92,11.32,11.32,0,0,1-4.31,4.62,12.27,12.27,0,0,1-5.42,1.58h0c-.35,0-.68,0-1,0H73.48a12.85,12.85,0,0,1-5.21-1.48,10.78,10.78,0,0,1-4.39-4.36A13.25,13.25,0,0,1,62.32,75V64.54a14.83,14.83,0,0,1,1.54-6.92A11.07,11.07,0,0,1,68.19,53a12.24,12.24,0,0,1,5.16-1.58h1.31a12.13,12.13,0,0,1,5.6,1.32,11.85,11.85,0,0,1,4.27,3.65,13.81,13.81,0,0,1,2.31,5.46h-5.3a7.46,7.46,0,0,0-1.48-3,7.06,7.06,0,0,0-2.45-1.95,6.83,6.83,0,0,0-2.92-.66,7,7,0,0,0-3.84,1,6.9,6.9,0,0,0-2.55,2.93,10,10,0,0,0-.9,4.38V75a8.17,8.17,0,0,0,.93,4,6.55,6.55,0,0,0,2.61,2.66,7.82,7.82,0,0,0,3.9.94,7.49,7.49,0,0,0,3.83-1,6.53,6.53,0,0,0,2.55-2.86,10.21,10.21,0,0,0,.91-4.45V72.76H75V68Z"/></svg>